<?xml version="1.0" standalone="no"?>
<!DOCTYPE svg PUBLIC "-//W3C//DTD SVG 20010904//EN"
 "http://www.w3.org/TR/2001/REC-SVG-20010904/DTD/svg10.dtd">
<svg version="1.0" xmlns="http://www.w3.org/2000/svg"
 width="146.000000pt" height="170.000000pt" viewBox="0 0 146.000000 170.000000"
 preserveAspectRatio="xMidYMid meet">

<g transform="translate(0.000000,170.000000) scale(0.100000,-0.100000)"
fill="#000000" stroke="none">
<path d="M553 1680 c-45 -9 -88 -29 -80 -36 2 -3 41 -23 87 -45 46 -22 96 -49
112 -61 46 -32 74 -27 129 28 l50 49 69 0 c64 0 68 1 53 17 -31 35 -103 51
-243 54 -74 2 -154 -1 -177 -6z"/>
<path d="M561 1425 c-165 -36 -344 -163 -442 -313 -174 -266 -144 -630 73
-866 340 -371 958 -288 1183 158 57 115 79 219 72 356 -11 251 -131 451 -349
583 -52 31 -197 87 -228 87 -4 0 25 -57 66 -127 88 -151 114 -227 114 -327 0
-234 -161 -506 -299 -506 -107 0 -235 157 -287 350 -23 88 -24 230 -1 295 15
44 112 223 161 298 21 31 23 30 -63 12z"/>
<path d="M640 738 c-30 -11 -40 -25 -40 -59 0 -44 59 -76 96 -51 62 41 14 136
-56 110z"/>
</g>
</svg>
